<svg xmlns="http://www.w3.org/2000/svg" version="1.1" xmlns:xlink="http://www.w3.org/1999/xlink" xmlns:svgjs="http://svgjs.dev/svgjs" width="1500" height="1500" viewBox="0 0 1500 1500"><rect width="1500" height="1500" fill="#ffffff"></rect><g transform="matrix(0.6666666666666666,0,0,0.6666666666666666,249.39393939393932,497.44466896255364)"><svg viewBox="0 0 396 200" data-background-color="#ffffff" preserveAspectRatio="xMidYMid meet" height="757" width="1500" xmlns="http://www.w3.org/2000/svg" xmlns:xlink="http://www.w3.org/1999/xlink"><g id="tight-bounds" transform="matrix(1,0,0,1,0.24000000000003752,0.0879779540738923)"><svg viewBox="0 0 395.5199999999999 199.82404409185222" height="199.82404409185222" width="395.5199999999999"><g><svg viewBox="0 0 397.8476181948194 200.99999999999997" height="199.82404409185222" width="395.5199999999999"><g><rect width="5.544203523735408" height="200.99999999999997" x="137.3228668111618" y="0" fill="#a79ab2" opacity="1" stroke-width="0" stroke="transparent" fill-opacity="1" class="rect-qz-0" data-fill-palette-color="primary" rx="1%" id="qz-0" data-palette-color="#a79ab2"></rect></g><g transform="matrix(1,0,0,1,157.38069212478047,0.4999999999999858)"><svg viewBox="0 0 240.46692607003894 200" height="200" width="240.46692607003894"><g id="textblocktransform"><svg viewBox="0 0 240.46692607003894 200" height="200" width="240.46692607003894" id="textblock"><g><svg viewBox="0 0 240.46692607003894 200" height="200" width="240.46692607003894"><g transform="matrix(1,0,0,1,0,0)"><svg width="240.46692607003894" viewBox="5.100000000000004 -35 140.85 112.64999999999999" height="200" data-palette-color="#a79ab2"><svg></svg><svg></svg><svg></svg><g class="wordmark-text-0" data-fill-palette-color="primary" id="text-0"><path d="M11.25-30.85v12.05h13.5v3.5h-13.5v15.3h-4.35v-34.45h20.3l-0.5 3.6zM57.65-17.2c0 5.367-1.09 9.667-3.27 12.9-2.187 3.233-5.313 4.85-9.38 4.85v0c-4.1 0-7.233-1.583-9.4-4.75-2.167-3.167-3.25-7.483-3.25-12.95v0c0-3.5 0.483-6.6 1.45-9.3 0.967-2.7 2.4-4.8 4.3-6.3 1.9-1.5 4.2-2.25 6.9-2.25v0c4.067 0 7.193 1.607 9.38 4.82 2.18 3.22 3.27 7.547 3.27 12.98zM53.15-17.2c0-4.7-0.65-8.233-1.95-10.6-1.3-2.367-3.367-3.55-6.2-3.55v0c-2.833 0-4.9 1.19-6.2 3.57-1.3 2.387-1.95 5.93-1.95 10.63v0c0 4.667 0.66 8.173 1.98 10.52 1.313 2.353 3.37 3.53 6.17 3.53v0c2.833 0 4.9-1.177 6.2-3.53 1.3-2.347 1.95-5.87 1.95-10.57zM86.85-9.55c0 2-0.5 3.757-1.5 5.27-1 1.52-2.45 2.703-4.35 3.55-1.9 0.853-4.15 1.28-6.75 1.28v0c-2.5 0-4.777-0.377-6.83-1.13-2.047-0.747-3.803-1.82-5.27-3.22v0l2.6-2.95c1.267 1.2 2.673 2.117 4.22 2.75 1.553 0.633 3.33 0.95 5.33 0.95v0c2.267 0 4.167-0.55 5.7-1.65 1.533-1.1 2.3-2.683 2.3-4.75v0c0-1.167-0.217-2.133-0.65-2.9-0.433-0.767-1.19-1.45-2.27-2.05-1.087-0.6-2.613-1.183-4.58-1.75v0c-3.733-1.1-6.517-2.393-8.35-3.88-1.833-1.48-2.75-3.503-2.75-6.07v0c0-1.7 0.467-3.233 1.4-4.6 0.933-1.367 2.25-2.427 3.95-3.18 1.7-0.747 3.633-1.12 5.8-1.12v0c2.267 0 4.29 0.333 6.07 1 1.787 0.667 3.43 1.65 4.93 2.95v0l-2.6 2.8c-2.367-2.067-5.117-3.1-8.25-3.1v0c-2 0-3.65 0.433-4.95 1.3-1.3 0.867-1.95 2.133-1.95 3.8v0c0 1 0.267 1.85 0.8 2.55 0.533 0.7 1.417 1.35 2.65 1.95 1.233 0.6 2.967 1.217 5.2 1.85v0c3.233 0.933 5.723 2.15 7.47 3.65 1.753 1.5 2.63 3.733 2.63 6.7zM116.85-9.55c0 2-0.5 3.757-1.5 5.27-1 1.52-2.45 2.703-4.35 3.55-1.9 0.853-4.15 1.28-6.75 1.28v0c-2.5 0-4.777-0.377-6.83-1.13-2.047-0.747-3.803-1.82-5.27-3.22v0l2.6-2.95c1.267 1.2 2.673 2.117 4.22 2.75 1.553 0.633 3.33 0.95 5.33 0.95v0c2.267 0 4.167-0.55 5.7-1.65 1.533-1.1 2.3-2.683 2.3-4.75v0c0-1.167-0.217-2.133-0.65-2.9-0.433-0.767-1.19-1.45-2.27-2.05-1.087-0.6-2.613-1.183-4.58-1.75v0c-3.733-1.1-6.517-2.393-8.35-3.88-1.833-1.48-2.75-3.503-2.75-6.07v0c0-1.7 0.467-3.233 1.4-4.6 0.933-1.367 2.25-2.427 3.95-3.18 1.7-0.747 3.633-1.12 5.8-1.12v0c2.267 0 4.29 0.333 6.07 1 1.787 0.667 3.43 1.65 4.93 2.95v0l-2.6 2.8c-2.367-2.067-5.117-3.1-8.25-3.1v0c-2 0-3.65 0.433-4.95 1.3-1.3 0.867-1.95 2.133-1.95 3.8v0c0 1 0.267 1.85 0.8 2.55 0.533 0.7 1.417 1.35 2.65 1.95 1.233 0.6 2.967 1.217 5.2 1.85v0c3.233 0.933 5.723 2.15 7.47 3.65 1.753 1.5 2.63 3.733 2.63 6.7z" fill="#a79ab2" fill-rule="nonzero" stroke="none" stroke-width="1" stroke-linecap="butt" stroke-linejoin="miter" stroke-miterlimit="10" stroke-dasharray="" stroke-dashoffset="0" font-family="none" font-weight="none" font-size="none" text-anchor="none" style="mix-blend-mode: normal" data-fill-palette-color="primary" opacity="1"></path><path transform="translate(0,38.55)" d="M11.25-30.85v12.05h13.5v3.5h-13.5v15.3h-4.35v-34.45h20.3l-0.5 3.6zM52.8-26.9c1.067 0 2.3 0.183 3.7 0.55v0l-0.6 8.95h-3.4v-5.65h-0.25c-4.067 0-6.95 2.9-8.65 8.7v0 11.1h5.35v3.25h-13.7v-3.25h4.15v-19.85h-4.15v-3.25h7.3l0.8 6.25c1.067-2.267 2.34-3.967 3.82-5.1 1.487-1.133 3.363-1.7 5.63-1.7zM75.05-26.9c3.633 0 6.423 1.223 8.37 3.67 1.953 2.453 2.93 5.797 2.93 10.03v0c0 4.133-0.99 7.457-2.97 9.97-1.987 2.52-4.78 3.78-8.38 3.78v0c-3.633 0-6.433-1.227-8.4-3.68-1.967-2.447-2.95-5.787-2.95-10.02v0c0-4.167 0.993-7.5 2.98-10 1.98-2.5 4.787-3.75 8.42-3.75zM75.05-23.45c-2.3 0-4.017 0.85-5.15 2.55-1.133 1.7-1.7 4.283-1.7 7.75v0c0 3.467 0.56 6.04 1.68 7.72 1.113 1.687 2.82 2.53 5.12 2.53v0c2.3 0 4.01-0.843 5.13-2.53 1.113-1.68 1.67-4.27 1.67-7.77v0c0-3.467-0.557-6.043-1.67-7.73-1.12-1.68-2.813-2.52-5.08-2.52zM95 0v-26.35h3.6l0.35 3.7c1.033-1.333 2.343-2.377 3.93-3.13 1.58-0.747 3.17-1.12 4.77-1.12v0c4.933 0 7.4 2.6 7.4 7.8v0 19.1h-4.2v-16c0-1.967-0.107-3.467-0.32-4.5-0.22-1.033-0.647-1.8-1.28-2.3-0.633-0.5-1.6-0.75-2.9-0.75v0c-1.433 0-2.783 0.433-4.05 1.3-1.267 0.867-2.3 1.9-3.1 3.1v0 19.15zM145.95-1.35c-0.9 0.6-1.99 1.067-3.27 1.4-1.287 0.333-2.563 0.5-3.83 0.5v0c-2.767 0-4.933-0.727-6.5-2.18-1.567-1.447-2.35-3.353-2.35-5.72v0-15.7h-6.05v-3.3h6.05v-5.95l4.2-0.5v6.45h9.15l-0.55 3.3h-8.6v15.65c0 1.5 0.4 2.617 1.2 3.35 0.8 0.733 2.083 1.1 3.85 1.1v0c1.8 0 3.483-0.417 5.05-1.25v0z" fill="#a79ab2" fill-rule="nonzero" stroke="none" stroke-width="1" stroke-linecap="butt" stroke-linejoin="miter" stroke-miterlimit="10" stroke-dasharray="" stroke-dashoffset="0" font-family="none" font-weight="none" font-size="none" text-anchor="none" style="mix-blend-mode: normal" data-fill-palette-color="primary" opacity="1"></path><path transform="translate(0,77.1)" d="M26.85-24.75c0 2.467-0.767 4.507-2.3 6.12-1.533 1.62-3.567 2.747-6.1 3.38v0l10.25 15.25h-5.2l-9.45-14.75h-4.65v14.75h-4.3v-34.45h8.8c4.267 0 7.493 0.817 9.68 2.45 2.18 1.633 3.27 4.05 3.27 7.25zM22.25-24.75c0-2.2-0.633-3.783-1.9-4.75-1.267-0.967-3.25-1.45-5.95-1.45v0h-5v12.8h5.05c2.567 0 4.51-0.527 5.83-1.58 1.313-1.047 1.97-2.72 1.97-5.02zM45.05-26.9c3.633 0 6.423 1.223 8.37 3.67 1.953 2.453 2.93 5.797 2.93 10.03v0c0 4.133-0.99 7.457-2.97 9.97-1.987 2.52-4.78 3.78-8.38 3.78v0c-3.633 0-6.433-1.227-8.4-3.68-1.967-2.447-2.95-5.787-2.95-10.02v0c0-4.167 0.993-7.5 2.98-10 1.98-2.5 4.787-3.75 8.42-3.75zM45.05-23.45c-2.3 0-4.017 0.85-5.15 2.55-1.133 1.7-1.7 4.283-1.7 7.75v0c0 3.467 0.56 6.04 1.68 7.72 1.113 1.687 2.82 2.53 5.12 2.53v0c2.3 0 4.01-0.843 5.13-2.53 1.113-1.68 1.67-4.27 1.67-7.77v0c0-3.467-0.557-6.043-1.67-7.73-1.12-1.68-2.813-2.52-5.08-2.52zM84.55 0h-5.95l-3.45-19.3-3.7 19.3h-5.8l-4.75-26.35h4.25l3.4 23.75 4.2-20.4h4.95l3.95 20.4 3.4-23.75h4.05z" fill="#a79ab2" fill-rule="nonzero" stroke="none" stroke-width="1" stroke-linecap="butt" stroke-linejoin="miter" stroke-miterlimit="10" stroke-dasharray="" stroke-dashoffset="0" font-family="none" font-weight="none" font-size="none" text-anchor="none" style="mix-blend-mode: normal" data-fill-palette-color="primary" opacity="1"></path></g></svg></g></svg></g></svg></g></svg></g><g transform="matrix(1,0,0,1,0,0.5)"><svg viewBox="0 0 122.80924502127853 199.99999999999997" height="199.99999999999997" width="122.80924502127853"><g><svg xmlns="http://www.w3.org/2000/svg" xmlns:xlink="http://www.w3.org/1999/xlink" version="1.1" x="0" y="0" viewBox="24.213000000000005 8.357999999999997 52.231999999999985 85.06200000000001" enable-background="new 0 0 100 100" xml:space="preserve" height="199.99999999999997" width="122.80924502127853" class="icon-icon-0" data-fill-palette-color="accent" id="icon-0"><rect x="53.634" y="48.93" width="6.403" height="3.919" fill="#4bc6b9" data-fill-palette-color="accent"></rect><rect x="40.621" y="48.93" width="6.403" height="3.919" fill="#4bc6b9" data-fill-palette-color="accent"></rect><path d="M72.017 8.36H58.479c-1.174 0-2.301 0.466-3.131 1.296s-1.297 1.956-1.296 3.13c0 0.995-0.387 1.929-1.091 2.632-0.703 0.704-1.638 1.091-2.632 1.091-2.053 0-3.724-1.671-3.724-3.725 0-2.444-1.982-4.426-4.427-4.426l-13.538 0c-2.445 0-4.427 1.982-4.427 4.426V48.93c0 0.686 0 3.215 0 3.919l0 36.144c0 1.174 0.466 2.3 1.296 3.131 0.83 0.83 1.956 1.296 3.13 1.296H42.18c2.444 0 4.426-1.981 4.426-4.427 0-2.053 1.671-3.724 3.724-3.724s3.724 1.671 3.724 3.724c0 2.445 1.981 4.427 4.426 4.427h13.538c2.445 0 4.427-1.982 4.427-4.427V52.849c0-0.704 0-3.216 0-3.92V12.787C76.444 10.342 74.462 8.36 72.017 8.36zM72.017 48.929h-5.37v3.92h5.37v36.144H58.479c-0.001-4.501-3.648-8.15-8.149-8.15-4.501 0.001-8.149 3.649-8.15 8.15H28.64l0-36.144h5.371v-3.92l-5.371 0.001 0-36.144 13.538 0v0.001c0 4.501 3.648 8.149 8.15 8.15 4.501 0 8.15-3.649 8.15-8.15h13.538V48.929z" fill="#4bc6b9" data-fill-palette-color="accent"></path><path d="M50.329 25.111c-0.587 0-1.15 0.233-1.565 0.648l-8.532 8.533 3.13 3.13 4.754-4.754v11.721h4.427V32.668l4.753 4.754 3.131-3.13-8.532-8.532C51.479 25.344 50.916 25.111 50.329 25.111z" fill="#4bc6b9" data-fill-palette-color="accent"></path></svg></g></svg></g></svg></g><defs></defs></svg><rect width="395.5199999999999" height="199.82404409185222" fill="none" stroke="none" visibility="hidden"></rect></g></svg></g></svg>